<?xml version="1.0" encoding="utf-8"?>
<svg width="250px" height="294.5px" viewBox="0 0 250 294.5" version="1.1" xmlns:xlink="http://www.w3.org/1999/xlink" xmlns="http://www.w3.org/2000/svg">
  <defs>
    <linearGradient gradientUnits="objectBoundingBox" x1="0.5" y1="0.5" x2="0.5" y2="0.50897" id="gradient_1">
      <stop offset="0%" stop-color="#FF0000" />
      <stop offset="100%" stop-color="#FFFFFF" />
    </linearGradient>
    <linearGradient gradientUnits="objectBoundingBox" x1="1" y1="0" x2="1" y2="0.9999999" id="gradient_2">
      <stop offset="0%" stop-color="#4B0000" />
      <stop offset="100%" stop-color="#000000" />
    </linearGradient>
    <filter filterUnits="userSpaceOnUse" color-interpolation-filters="sRGB" id="filter_1">
      <feFlood flood-opacity="0" result="BackgroundImageFix" />
      <feColorMatrix in="SourceAlpha" type="matrix" values="0 0 0 0 0 0 0 0 0 0 0 0 0 0 0 0 0 0 128 0" />
      <feMorphology radius="-37" operator="dilate" in="SourceAlpha" result="effect0_dropShadow" />
      <feOffset dx="0" dy="73" />
      <feGaussianBlur stdDeviation="15.5" />
      <feColorMatrix type="matrix" values="0 0 0 0 1 0 0 0 0 0 0 0 0 0 0 0 0 0 0.34117648 0" />
      <feBlend mode="normal" in2="BackgroundImageFix" result="effect0_dropShadow" />
      <feColorMatrix in="SourceAlpha" type="matrix" values="0 0 0 0 0 0 0 0 0 0 0 0 0 0 0 0 0 0 128 0" />
      <feOffset dx="0" dy="2" />
      <feGaussianBlur stdDeviation="2" />
      <feColorMatrix type="matrix" values="0 0 0 0 0.39215687 0 0 0 0 0.39215687 0 0 0 0 0.39215687 0 0 0 0.14901961 0" />
      <feBlend mode="normal" in2="effect0_dropShadow" result="effect1_dropShadow" />
      <feBlend mode="normal" in="SourceGraphic" in2="effect1_dropShadow" result="shape" />
    </filter>
    <filter filterUnits="userSpaceOnUse" color-interpolation-filters="sRGB" id="filter_2">
      <feFlood flood-opacity="0" result="BackgroundImageFix" />
      <feBlend mode="normal" in="SourceGraphic" in2="BackgroundImageFix" result="shape" />
      <feColorMatrix in="SourceAlpha" type="matrix" values="0 0 0 0 0 0 0 0 0 0 0 0 0 0 0 0 0 0 128 0" result="hardAlpha" />
      <feOffset dx="0" dy="23" />
      <feGaussianBlur stdDeviation="10.5" />
      <feComposite in2="hardAlpha" operator="arithmetic" k2="-1" k3="1" />
      <feColorMatrix type="matrix" values="0 0 0 0 1 0 0 0 0 1 0 0 0 0 1 0 0 0 0.6313726 0" />
      <feBlend mode="normal" in2="shape" result="effect0_innerShadow" />
    </filter>
    <path d="M23 100C23 44.7715 67.7715 0 123 0C178.228 0 223 44.7715 223 100C223 155.228 178.228 200 123 200C67.7715 200 23 155.228 23 100Z" id="path_1" />
    <path d="M0 0L250 0L250 44L0 44L0 0Z" id="path_2" />
    <clipPath id="clip_1">
      <use xlink:href="#path_2" clip-rule="evenodd" fill-rule="evenodd" />
    </clipPath>
  </defs>
  <g id="ligmatv.is-a.dev">
    <path d="M50.9245 61L53 61L53 94L7 94L7 77.9531L50.9245 61Z" id="Rectangle" fill="#4A0000" fill-rule="evenodd" stroke="none" />
    <path d="M196.075 61L194 61L194 94L240 94L240 77.9531L196.075 61Z" id="Rectangle-2" fill="#4A0000" fill-rule="evenodd" stroke="none" />
    <g id="Oval" filter="url(#filter_1)">
      <use stroke="none" fill="url(#gradient_1)" xlink:href="#path_1" fill-rule="evenodd" filter="url(#filter_2)" />
    </g>
    <g id="glasses" transform="translate(7 94)">
      <g id="glass">
        <path d="M116.5 9.19998L233 9.19998L233 18.4L116.5 18.4L116.5 9.19998Z" id="Rectangle-Copy" fill="url(#gradient_2)" fill-rule="evenodd" stroke="none" />
        <path d="M129.898 18.4L219.603 18.4L219.603 27.6L129.898 27.6L129.898 18.4Z" id="Rectangle-Copy-2" fill="url(#gradient_2)" fill-rule="evenodd" stroke="none" />
        <path d="M138.004 27.6L210.918 27.6L210.918 36.8L138.004 36.8L138.004 27.6Z" id="Rectangle-Copy-3" fill="url(#gradient_2)" fill-rule="evenodd" stroke="none" />
        <path d="M146.427 36.8L202.233 36.8L202.233 46L146.427 46L146.427 36.8Z" id="Rectangle-Copy-4" fill="url(#gradient_2)" fill-rule="evenodd" stroke="none" />
        <path d="M116.5 0L233 0L233 9.2L116.5 9.2L116.5 0Z" id="Rectangle" fill="url(#gradient_2)" fill-rule="evenodd" stroke="none" />
        <path d="M0 9.19998L116.5 9.19998L116.5 18.4L0 18.4L0 9.19998Z" id="Rectangle-Copy-5" fill="url(#gradient_2)" fill-rule="evenodd" stroke="none" />
        <path d="M13.3975 18.4L103.102 18.4L103.102 27.6L13.3975 27.6L13.3975 18.4Z" id="Rectangle-Copy-6" fill="url(#gradient_2)" fill-rule="evenodd" stroke="none" />
        <path d="M21.5036 27.6L94.4179 27.6L94.4179 36.8L21.5036 36.8L21.5036 27.6Z" id="Rectangle-Copy-7" fill="url(#gradient_2)" fill-rule="evenodd" stroke="none" />
        <path d="M29.9275 36.8L85.7334 36.8L85.7334 46L29.9275 46L29.9275 36.8Z" id="Rectangle-Copy-8" fill="url(#gradient_2)" fill-rule="evenodd" stroke="none" />
        <path d="M0 0L116.5 0L116.5 9.2L0 9.2L0 0Z" id="Rectangle-Copy-9" fill="url(#gradient_2)" fill-rule="evenodd" stroke="none" />
      </g>
      <g id="light" transform="translate(13.622986 9.199982)">
        <path d="M154.081 18.4L163.476 18.4L163.476 27.6L154.081 27.6L154.081 18.4Z" id="Rectangle-6-Copy-3" fill="#FFFFFF" fill-rule="evenodd" stroke="none" />
        <path d="M144.685 9.20001L154.081 9.20001L154.081 18.4L144.685 18.4L144.685 9.20001Z" id="Rectangle-6-Copy-2" fill="#FFFFFF" fill-rule="evenodd" stroke="none" />
        <path d="M135.29 0L144.685 0L144.685 9.2L135.29 9.2L135.29 0Z" id="Rectangle-5-Copy" fill="#FFFFFF" fill-rule="evenodd" stroke="none" />
        <path d="M135.29 18.4L144.685 18.4L144.685 27.6L135.29 27.6L135.29 18.4Z" id="Rectangle-6-Copy" fill="#FFFFFF" fill-rule="evenodd" stroke="none" />
        <path d="M125.895 9.20001L135.29 9.20001L135.29 18.4L125.895 18.4L125.895 9.20001Z" id="Rectangle-6" fill="#FFFFFF" fill-rule="evenodd" stroke="none" />
        <path d="M116.5 0L125.895 0L125.895 9.2L116.5 9.2L116.5 0Z" id="Rectangle-5" fill="#FFFFFF" fill-rule="evenodd" stroke="none" />
        <path d="M0 0L9.39516 0L9.39516 9.2L0 9.2L0 0Z" id="Rectangle-5-Copy-2" fill="#FFFFFF" fill-rule="evenodd" stroke="none" />
        <path d="M9.39516 9.20001L18.7903 9.20001L18.7903 18.4L9.39516 18.4L9.39516 9.20001Z" id="Rectangle-6-Copy-4" fill="#FFFFFF" fill-rule="evenodd" stroke="none" />
        <path d="M18.7903 18.4L28.1855 18.4L28.1855 27.6L18.7903 27.6L18.7903 18.4Z" id="Rectangle-6-Copy-5" fill="#FFFFFF" fill-rule="evenodd" stroke="none" />
        <path d="M18.7903 0L28.1855 0L28.1855 9.2L18.7903 9.2L18.7903 0Z" id="Rectangle-5-Copy-3" fill="#FFFFFF" fill-rule="evenodd" stroke="none" />
        <path d="M28.1855 9.20001L37.5806 9.20001L37.5806 18.4L28.1855 18.4L28.1855 9.20001Z" id="Rectangle-6-Copy-6" fill="#FFFFFF" fill-rule="evenodd" stroke="none" />
        <path d="M37.5806 18.4L46.9758 18.4L46.9758 27.6L37.5806 27.6L37.5806 18.4Z" id="Rectangle-6-Copy-7" fill="#FFFFFF" fill-rule="evenodd" stroke="none" />
      </g>
    </g>
    <g id="text" transform="translate(0 214.08081)">
      <path d="M21.525 2.56721e-05C23.2075 2.56721e-05 24.5955 0.58888 25.7732 1.7666C26.9509 2.94431 27.5398 4.3744 27.5398 6.01478L27.5398 26.8771L6.21476 26.8771C4.53231 26.8771 3.1443 26.2883 1.96658 25.1105C0.78887 23.9328 0.200012 22.5027 0.200012 20.8624L0.200012 10.9359L22.5345 10.9359L22.5345 6.01476C22.5345 5.72032 22.4504 5.51002 22.2401 5.29971C22.0298 5.08941 21.8195 5.00528 21.525 5.00528L0.200012 5.00528L0.200012 0L21.525 0L21.525 2.56721e-05ZM22.5345 21.8719L22.5345 15.9412L5.20529 15.9412L5.20529 20.8624C5.20529 21.1568 5.28941 21.3671 5.49972 21.5774C5.71003 21.7877 5.92033 21.8719 6.21476 21.8719L22.5345 21.8719L22.5345 21.8719ZM70.7787 0L76.1205 0L66.0258 26.8771L61.9458 26.8771L52.9027 6.89803L44.3643 26.8771L44.2801 26.835L44.3222 26.8771L40.2843 26.8771L29.727 0L35.0267 0L42.3033 17.8339L50.0425 0L55.7628 0L63.9648 17.8339L70.7787 0L70.7787 0ZM99.0438 1.28361e-05C100.726 1.28361e-05 102.114 0.588867 103.292 1.76659C104.47 2.9443 105.059 4.37439 105.059 6.01477L105.059 15.9412L82.7241 15.9412L82.7241 20.8624C82.7241 21.1568 82.8082 21.3671 83.0185 21.5774C83.2288 21.7877 83.4391 21.8718 83.7336 21.8718L105.059 21.8718L105.059 26.8771L83.7336 26.8771C82.0511 26.8771 80.6631 26.2883 79.4854 25.1105C78.3077 23.9328 77.7188 22.5027 77.7188 20.8624L77.7188 6.01476C77.7188 4.33231 78.3077 2.9443 79.4854 1.76658C80.6631 0.588867 82.0932 0 83.7336 0L99.0438 0L99.0438 1.28361e-05ZM82.7241 10.936L100.053 10.936L100.053 6.01479C100.053 5.72036 99.9691 5.51005 99.7588 5.29974C99.5485 5.08944 99.3382 5.00531 99.0438 5.00531L83.7335 5.00531C83.4391 5.00531 83.2288 5.08944 83.0185 5.29974C82.8082 5.51005 82.7241 5.72036 82.7241 6.01479L82.7241 10.936L82.7241 10.936ZM136.983 6.05681L136.983 7.06628L131.978 7.06628L131.978 6.05681C131.978 5.76238 131.894 5.55207 131.683 5.34177C131.473 5.13146 131.263 5.04733 130.968 5.04733L115.658 5.04733C115.364 5.04733 115.153 5.13146 114.943 5.34177C114.733 5.55207 114.648 5.76238 114.648 6.05681L114.648 9.9685C114.648 10.2629 114.733 10.4732 114.943 10.6835C115.153 10.8938 115.364 10.978 115.658 10.978L130.968 10.978C132.651 10.978 134.039 11.5668 135.216 12.7445C136.394 13.9223 136.983 15.3523 136.983 16.9927L136.983 20.9044C136.983 22.5869 136.394 23.9749 135.216 25.1526C134.039 26.3303 132.609 26.9192 130.968 26.9192L115.658 26.9192C113.976 26.9192 112.588 26.3303 111.41 25.1526C110.232 23.9749 109.643 22.5448 109.643 20.9044L109.643 19.895L114.648 19.895L114.648 20.9044C114.648 21.1989 114.733 21.4092 114.943 21.6195C115.153 21.8298 115.364 21.9139 115.658 21.9139L130.968 21.9139C131.263 21.9139 131.473 21.8298 131.683 21.6195C131.894 21.4092 131.978 21.1989 131.978 20.9044L131.978 16.9927C131.978 16.6983 131.894 16.488 131.683 16.2777C131.473 16.0674 131.263 15.9833 130.968 15.9833L115.658 15.9833C113.976 15.9833 112.588 15.3944 111.41 14.2167C110.232 13.039 109.643 11.6089 109.643 9.9685L109.643 6.05681C109.643 4.37436 110.232 2.98635 111.41 1.80863C112.588 0.63092 114.018 0.0420532 115.658 0.0420532L130.968 0.0420532C132.651 0.0420532 134.039 0.630907 135.216 1.80863C136.394 2.94429 136.983 4.37436 136.983 6.05681L136.983 6.05681ZM147.582 0L162.893 0C164.575 0 165.963 0.588854 167.141 1.76658C168.319 2.94428 168.907 4.37437 168.907 6.01476L168.907 20.8624C168.907 22.5448 168.319 23.9328 167.141 25.1105C165.963 26.2882 164.533 26.8771 162.893 26.8771L147.582 26.8771C145.9 26.8771 144.512 26.2883 143.334 25.1105C142.157 23.9328 141.568 22.5027 141.568 20.8624L141.568 6.01476C141.568 4.33231 142.157 2.9443 143.334 1.76658C144.512 0.588867 145.942 0 147.582 0L147.582 0ZM162.893 5.00531L147.582 5.00531C147.288 5.00531 147.078 5.08944 146.867 5.29974C146.657 5.51005 146.573 5.72036 146.573 6.01479L146.573 20.8624C146.573 21.1568 146.657 21.3671 146.867 21.5774C147.078 21.7877 147.288 21.8719 147.582 21.8719L162.893 21.8719C163.187 21.8719 163.397 21.7877 163.608 21.5774C163.818 21.3671 163.902 21.1568 163.902 20.8624L163.902 6.01479C163.902 5.72036 163.818 5.51005 163.608 5.29974C163.397 5.1315 163.187 5.00531 162.893 5.00531L162.893 5.00531ZM208.108 0C209.791 0 211.179 0.588854 212.357 1.76657C213.534 2.94428 214.123 4.37437 214.123 6.01476L214.123 26.8771L209.16 26.8771L209.16 6.01474C209.16 5.72031 209.076 5.51001 208.866 5.2997C208.655 5.08939 208.403 5.00527 208.108 5.00527L197.509 5.00527C197.215 5.00527 197.004 5.08939 196.794 5.2997C196.584 5.51001 196.5 5.72031 196.5 6.01474L196.5 26.8771L191.494 26.8771L191.494 6.01474C191.494 5.72031 191.41 5.51001 191.2 5.2997C190.99 5.08939 190.779 5.00527 190.485 5.00527L179.843 5.00527C179.549 5.00527 179.339 5.08939 179.128 5.2997C178.918 5.51001 178.834 5.72031 178.834 6.01474L178.834 26.8771L173.829 26.8771L173.829 0L208.108 0L208.108 0ZM240.285 1.28361e-05C241.968 1.28361e-05 243.356 0.588867 244.533 1.76659C245.711 2.9443 246.3 4.37439 246.3 6.01477L246.3 15.9412L223.966 15.9412L223.966 20.8624C223.966 21.1568 224.05 21.3671 224.26 21.5774C224.47 21.7877 224.681 21.8718 224.975 21.8718L246.3 21.8718L246.3 26.8771L224.975 26.8771C223.293 26.8771 221.905 26.2883 220.727 25.1105C219.549 23.9328 218.96 22.5027 218.96 20.8624L218.96 6.01476C218.96 4.33231 219.549 2.9443 220.727 1.76658C221.905 0.588867 223.335 0 224.975 0L240.285 0L240.285 1.28361e-05ZM223.966 10.936L241.295 10.936L241.295 6.01479C241.295 5.72036 241.211 5.51005 241 5.29974C240.79 5.08944 240.58 5.00531 240.285 5.00531L224.975 5.00531C224.681 5.00531 224.47 5.08944 224.26 5.29974C224.05 5.51005 223.966 5.72036 223.966 6.01479L223.966 10.936L223.966 10.936Z" id="Shape" fill="#FF0000" fill-rule="evenodd" stroke="none" />
      <g id="Indo-Projects" clip-path="url(#clip_1)" transform="translate(0 26.91919)">
        <g stroke="#FF0000" stroke-width="1" id="Indo-Projects" fill="#FFFFFF">
          <path d="M1.749 33.363L1.749 9.603L5.313 9.603L5.313 33.363L1.749 33.363ZM9.875 33.363L9.875 14.223L25.055 14.223Q26.243 14.223 27.2165 14.817Q28.19 15.411 28.7675 16.368Q29.345 17.325 29.345 18.513L29.345 33.363L25.781 33.363L25.781 18.612Q25.781 18.282 25.5335 18.0345Q25.286 17.787 24.956 17.787L14.264 17.787Q13.934 17.787 13.6865 18.0345Q13.439 18.282 13.439 18.612L13.439 33.363L9.875 33.363ZM36.91 33.363Q35.722 33.363 34.7485 32.7855Q33.775 32.208 33.1975 31.218Q32.62 30.228 32.62 29.073L32.62 18.513Q32.62 17.325 33.1975 16.368Q33.775 15.411 34.7485 14.817Q35.722 14.223 36.91 14.223L48.526 14.223L48.526 7.953L52.09 7.953L52.09 33.363L36.91 33.363ZM37.042 29.799L47.734 29.799Q48.064 29.799 48.295 29.5515Q48.526 29.304 48.526 28.974L48.526 18.612Q48.526 18.282 48.295 18.0345Q48.064 17.787 47.734 17.787L37.042 17.787Q36.712 17.787 36.4645 18.0345Q36.217 18.282 36.217 18.612L36.217 28.974Q36.217 29.304 36.4645 29.5515Q36.712 29.799 37.042 29.799ZM59.919 33.363C59.127 33.363 58.412 33.165 57.774 32.769Q56.817 32.175 56.223 31.218Q55.629 30.261 55.629 29.073L55.629 18.513Q55.629 17.325 56.223 16.368Q56.817 15.411 57.774 14.817Q58.731 14.223 59.919 14.223L70.809 14.223Q71.997 14.223 72.9705 14.8005Q73.944 15.378 74.5215 16.368Q75.099 17.358 75.099 18.513L75.099 29.073Q75.099 30.261 74.5215 31.218Q73.944 32.175 72.9705 32.769C72.3215 33.165 71.601 33.363 70.809 33.363L59.919 33.363ZM60.018 29.799L70.71 29.799Q71.04 29.799 71.271 29.5515Q71.502 29.304 71.502 28.974L71.502 18.612Q71.502 18.282 71.271 18.0345Q71.04 17.787 70.71 17.787L60.018 17.787Q59.688 17.787 59.4405 18.0345Q59.193 18.282 59.193 18.612L59.193 28.974Q59.193 29.304 59.4405 29.5515Q59.688 29.799 60.018 29.799ZM89.8 33.363L89.8 9.636L109.237 9.636Q110.425 9.636 111.415 10.23Q112.405 10.824 112.983 11.7975Q113.56 12.771 113.56 13.926L113.56 20.592Q113.56 21.78 112.983 22.7535Q112.405 23.727 111.415 24.3045Q110.425 24.882 109.237 24.882L93.364 24.915L93.364 33.363L89.8 33.363ZM94.189 21.285L109.138 21.285Q109.501 21.285 109.732 21.054Q109.963 20.823 109.963 20.493L109.963 14.025Q109.963 13.695 109.732 13.4475Q109.501 13.2 109.138 13.2L94.189 13.2Q93.859 13.2 93.6115 13.4475Q93.364 13.695 93.364 14.025L93.364 20.493Q93.364 20.823 93.6115 21.054Q93.859 21.285 94.189 21.285ZM116.571 33.363L116.571 18.513Q116.571 17.325 117.165 16.368Q117.759 15.411 118.733 14.817Q119.706 14.223 120.861 14.223L131.553 14.223L131.553 17.787L120.96 17.787Q120.63 17.787 120.383 18.0345Q120.135 18.282 120.135 18.612L120.135 33.363L116.571 33.363ZM138.656 33.363C137.864 33.363 137.149 33.165 136.511 32.769Q135.554 32.175 134.96 31.218Q134.366 30.261 134.366 29.073L134.366 18.513Q134.366 17.325 134.96 16.368Q135.554 15.411 136.511 14.817Q137.468 14.223 138.656 14.223L149.546 14.223Q150.734 14.223 151.708 14.8005Q152.681 15.378 153.258 16.368Q153.836 17.358 153.836 18.513L153.836 29.073Q153.836 30.261 153.258 31.218Q152.681 32.175 151.708 32.769C151.059 33.165 150.338 33.363 149.546 33.363L138.656 33.363ZM138.755 29.799L149.447 29.799Q149.777 29.799 150.008 29.5515Q150.239 29.304 150.239 28.974L150.239 18.612Q150.239 18.282 150.008 18.0345Q149.777 17.787 149.447 17.787L138.755 17.787Q138.425 17.787 138.178 18.0345Q137.93 18.282 137.93 18.612L137.93 28.974Q137.93 29.304 138.178 29.5515Q138.425 29.799 138.755 29.799ZM150.148 40.953L150.148 37.356L158.233 37.356Q158.563 37.356 158.811 37.125Q159.058 36.894 159.058 36.564L159.058 14.223L162.622 14.223L162.622 36.663Q162.622 37.851 162.044 38.8245Q161.467 39.798 160.493 40.3755Q159.52 40.953 158.332 40.953L150.148 40.953ZM159.058 11.517L159.058 7.953L162.622 7.953L162.622 11.517L159.058 11.517ZM170.55 33.363C169.758 33.363 169.043 33.165 168.405 32.769Q167.448 32.175 166.854 31.218Q166.26 30.261 166.26 29.073L166.26 18.513Q166.26 17.325 166.854 16.368Q167.448 15.411 168.405 14.817Q169.362 14.223 170.55 14.223L181.44 14.223Q182.628 14.223 183.602 14.8005Q184.575 15.378 185.152 16.368Q185.73 17.358 185.73 18.513L185.73 25.575L169.824 25.575L169.824 28.974Q169.824 29.304 170.072 29.5515Q170.319 29.799 170.649 29.799L185.73 29.799L185.73 33.363L170.55 33.363ZM169.824 22.242L182.133 22.242L182.133 18.612Q182.133 18.282 181.902 18.0345Q181.671 17.787 181.341 17.787L170.649 17.787Q170.319 17.787 170.072 18.0345Q169.824 18.282 169.824 18.612L169.824 22.242ZM193.46 33.363C192.668 33.363 191.953 33.165 191.315 32.769Q190.358 32.175 189.764 31.218Q189.17 30.261 189.17 29.073L189.17 18.513Q189.17 17.325 189.764 16.368Q190.358 15.411 191.315 14.817Q192.272 14.223 193.46 14.223L208.574 14.223L208.574 17.787L193.559 17.787Q193.229 17.787 192.982 18.0345Q192.734 18.282 192.734 18.612L192.734 28.974Q192.734 29.304 192.982 29.5515Q193.229 29.799 193.559 29.799L208.64 29.799L208.64 33.363L193.46 33.363ZM216.403 33.363C215.611 33.363 214.891 33.165 214.242 32.769Q213.268 32.175 212.69 31.218Q212.113 30.261 212.113 29.073L212.113 8.184L215.677 8.184L215.677 14.223L223.531 14.223L223.531 17.787L215.677 17.787L215.677 28.974Q215.677 29.304 215.924 29.5515Q216.172 29.799 216.502 29.799L223.531 29.799L223.531 33.363L216.403 33.363ZM231.195 33.363C230.403 33.363 229.688 33.165 229.05 32.769Q228.093 32.175 227.499 31.218Q226.905 30.261 226.905 29.073L226.905 28.578L230.469 28.578L230.469 28.974Q230.469 29.304 230.716 29.5515Q230.964 29.799 231.294 29.799L241.986 29.799Q242.316 29.799 242.547 29.5515Q242.778 29.304 242.778 28.974L242.778 26.4Q242.778 26.07 242.547 25.8225Q242.316 25.575 241.986 25.575L231.195 25.575Q230.007 25.575 229.05 24.9975Q228.093 24.42 227.499 23.4465Q226.905 22.473 226.905 21.285L226.905 18.513Q226.905 17.325 227.499 16.368Q228.093 15.411 229.05 14.817Q230.007 14.223 231.195 14.223L242.085 14.223Q243.273 14.223 244.247 14.817Q245.22 15.411 245.798 16.368Q246.375 17.325 246.375 18.513L246.375 19.008L242.778 19.008L242.778 18.612Q242.778 18.282 242.547 18.0345Q242.316 17.787 241.986 17.787L231.294 17.787Q230.964 17.787 230.716 18.0345Q230.469 18.282 230.469 18.612L230.469 21.186Q230.469 21.516 230.716 21.7635Q230.964 22.011 231.294 22.011L242.085 22.011Q243.273 22.011 244.247 22.5885Q245.22 23.166 245.798 24.1395Q246.375 25.113 246.375 26.301L246.375 29.073Q246.375 30.261 245.798 31.218Q245.22 32.175 244.247 32.769C243.598 33.165 242.877 33.363 242.085 33.363L231.195 33.363Z" />
        </g>
      </g>
    </g>
  </g>
</svg>